REM DIRINDEX 1\8,1\2\11,1\3\12,1\3\14,1\5\15,1\5\16,1\6\17,1\6\18,1\4\19,1\4\20,1\4\21,1\4\22,1\7\23,1\7\24,1\7\25,1\2\9\26,1\2\9\27,1\2\10\28,1\2\10\29,1\2\10\30,1\2\10\31,1\2\10\32,1\3\13\33,1\3\13\34,1\3\13\35
REM DIRNAME folder01,folder02,folder03,folder04,folder05,folder06,folder07,folder08,folder09,folder10,folder11,folder12,folder13,folder14,folder15,folder16,folder17,folder18,folder19,folder20,folder21,folder22,folder23,folder24,folder25,folder26,folder27,folder28,folder29,folder30,folder31,folder32,folder33,folder34,folder35
TITLE ""
FILE "2-58 058_UNIT5_SET6.mp3" MP3
  TRACK 01 AUDIO
    TITLE "11:cjc123_5952"
    INDEX 01 00:00:00
  TRACK 02 AUDIO
    TITLE "0:"
    INDEX 01 00:02:69
  TRACK 03 AUDIO
    TITLE "28:cjc123_5953"
    INDEX 01 00:03:39
  TRACK 04 AUDIO
    TITLE "0:"
    INDEX 01 00:04:36
  TRACK 05 AUDIO
    TITLE "29:cjc123_5954"
    INDEX 01 00:04:48
  TRACK 06 AUDIO
    TITLE "0:"
    INDEX 01 00:05:63
  TRACK 07 AUDIO
    TITLE "30:cjc123_5955"
    INDEX 01 00:06:00
  TRACK 08 AUDIO
    TITLE "0:"
    INDEX 01 00:07:07
  TRACK 09 AUDIO
    TITLE "31:cjc123_5956"
    INDEX 01 00:07:58
  TRACK 10 AUDIO
    TITLE "0:"
    INDEX 01 00:11:33
  TRACK 11 AUDIO
    TITLE "32:cjc123_5957"
    INDEX 01 00:12:11
  TRACK 12 AUDIO
    TITLE "0:"
    INDEX 01 00:16:30
  TRACK 13 AUDIO
    TITLE "28:cjc123_5958"
    INDEX 01 00:16:67
  TRACK 14 AUDIO
    TITLE "0:"
    INDEX 01 00:18:09
  TRACK 15 AUDIO
    TITLE "29:cjc123_5959"
    INDEX 01 00:18:25
  TRACK 16 AUDIO
    TITLE "0:"
    INDEX 01 00:19:42
  TRACK 17 AUDIO
    TITLE "30:cjc123_5960"
    INDEX 01 00:19:58
  TRACK 18 AUDIO
    TITLE "0:"
    INDEX 01 00:20:73
  TRACK 19 AUDIO
    TITLE "31:cjc123_5961"
    INDEX 01 00:21:47
  TRACK 20 AUDIO
    TITLE "0:"
    INDEX 01 00:25:52
  TRACK 21 AUDIO
    TITLE "32:cjc123_5962"
    INDEX 01 00:26:20
  TRACK 22 AUDIO
    TITLE "0:"
    INDEX 01 00:29:66
  TRACK 23 AUDIO
    TITLE "28:cjc123_5963"
    INDEX 01 00:30:36
  TRACK 24 AUDIO
    TITLE "0:"
    INDEX 01 00:31:49
  TRACK 25 AUDIO
    TITLE "29:cjc123_5964"
    INDEX 01 00:31:65
  TRACK 26 AUDIO
    TITLE "0:"
    INDEX 01 00:33:13
  TRACK 27 AUDIO
    TITLE "30:cjc123_5965"
    INDEX 01 00:33:28
  TRACK 28 AUDIO
    TITLE "0:"
    INDEX 01 00:34:43
  TRACK 29 AUDIO
    TITLE "31:cjc123_5966"
    INDEX 01 00:35:14
  TRACK 30 AUDIO
    TITLE "0:"
    INDEX 01 00:39:31
  TRACK 31 AUDIO
    TITLE "32:cjc123_5967"
    INDEX 01 00:39:68
  TRACK 32 AUDIO
    TITLE "0:"
    INDEX 01 00:44:24
  TRACK 33 AUDIO
    TITLE "28:cjc123_5968"
    INDEX 01 00:44:71
  TRACK 34 AUDIO
    TITLE "0:"
    INDEX 01 00:46:11
  TRACK 35 AUDIO
    TITLE "29:cjc123_5969"
    INDEX 01 00:46:21
  TRACK 36 AUDIO
    TITLE "0:"
    INDEX 01 00:47:36
  TRACK 37 AUDIO
    TITLE "30:cjc123_5970"
    INDEX 01 00:47:48
  TRACK 38 AUDIO
    TITLE "0:"
    INDEX 01 00:48:63
  TRACK 39 AUDIO
    TITLE "31:cjc123_5971"
    INDEX 01 00:49:37
  TRACK 40 AUDIO
    TITLE "0:"
    INDEX 01 00:54:03
  TRACK 41 AUDIO
    TITLE "32:cjc123_5972"
    INDEX 01 00:54:66
  TRACK 42 AUDIO
    TITLE "0:"
    INDEX 01 00:59:10
  TRACK 43 AUDIO
    TITLE "28:cjc123_5973"
    INDEX 01 00:59:41
  TRACK 44 AUDIO
    TITLE "0:"
    INDEX 01 01:00:49
  TRACK 45 AUDIO
    TITLE "29:cjc123_5974"
    INDEX 01 01:00:68
  TRACK 46 AUDIO
    TITLE "0:"
    INDEX 01 01:02:10
  TRACK 47 AUDIO
    TITLE "30:cjc123_5975"
    INDEX 01 01:02:24
  TRACK 48 AUDIO
    TITLE "0:"
    INDEX 01 01:03:29
  TRACK 49 AUDIO
    TITLE "31:cjc123_5976"
    INDEX 01 01:04:13
  TRACK 50 AUDIO
    TITLE "0:"
    INDEX 01 01:10:55
  TRACK 51 AUDIO
    TITLE "32:cjc123_5977"
    INDEX 01 01:11:15
  TRACK 52 AUDIO
    TITLE "0:"
    INDEX 01 01:17:35
  TRACK 53 AUDIO
    TITLE "28:cjc123_5978"
    INDEX 01 01:18:07
  TRACK 54 AUDIO
    TITLE "0:"
    INDEX 01 01:19:36
  TRACK 55 AUDIO
    TITLE "29:cjc123_5979"
    INDEX 01 01:19:48
  TRACK 56 AUDIO
    TITLE "0:"
    INDEX 01 01:20:67
  TRACK 57 AUDIO
    TITLE "30:cjc123_5980"
    INDEX 01 01:21:02
  TRACK 58 AUDIO
    TITLE "0:"
    INDEX 01 01:22:15
  TRACK 59 AUDIO
    TITLE "31:cjc123_5981"
    INDEX 01 01:23:16
  TRACK 60 AUDIO
    TITLE "0:"
    INDEX 01 01:29:31
  TRACK 61 AUDIO
    TITLE "32:cjc123_5982"
    INDEX 01 01:29:41
  TRACK 62 AUDIO
    TITLE "0:"
    INDEX 01 01:34:48
  TRACK 63 AUDIO
    TITLE "28:cjc123_5983"
    INDEX 01 01:35:22
  TRACK 64 AUDIO
    TITLE "0:"
    INDEX 01 01:36:27
  TRACK 65 AUDIO
    TITLE "29:cjc123_5984"
    INDEX 01 01:36:45
  TRACK 66 AUDIO
    TITLE "0:"
    INDEX 01 01:37:73
  TRACK 67 AUDIO
    TITLE "30:cjc123_5985"
    INDEX 01 01:38:08
  TRACK 68 AUDIO
    TITLE "0:"
    INDEX 01 01:39:21
  TRACK 69 AUDIO
    TITLE "31:cjc123_5986"
    INDEX 01 01:39:74
  TRACK 70 AUDIO
    TITLE "0:"
    INDEX 01 01:45:51
  TRACK 71 AUDIO
    TITLE "32:cjc123_5987"
    INDEX 01 01:46:12
  TRACK 72 AUDIO
    TITLE "0:"
    INDEX 01 01:51:30
  TRACK 73 AUDIO
    TITLE "28:cjc123_5988"
    INDEX 01 01:51:74
  TRACK 74 AUDIO
    TITLE "0:"
    INDEX 01 01:53:12
  TRACK 75 AUDIO
    TITLE "29:cjc123_5989"
    INDEX 01 01:53:33
  TRACK 76 AUDIO
    TITLE "0:"
    INDEX 01 01:54:52
  TRACK 77 AUDIO
    TITLE "30:cjc123_5990"
    INDEX 01 01:54:56
  TRACK 78 AUDIO
    TITLE "0:"
    INDEX 01 01:55:65
  TRACK 79 AUDIO
    TITLE "31:cjc123_5991"
    INDEX 01 01:56:41
  TRACK 80 AUDIO
    TITLE "0:"
    INDEX 01 02:01:27
  TRACK 81 AUDIO
    TITLE "32:cjc123_5992"
    INDEX 01 02:01:66
  TRACK 82 AUDIO
    TITLE "0:"
    INDEX 01 02:07:73
  TRACK 83 AUDIO
    TITLE "28:cjc123_5993"
    INDEX 01 02:08:39
  TRACK 84 AUDIO
    TITLE "0:"
    INDEX 01 02:09:54
  TRACK 85 AUDIO
    TITLE "29:cjc123_5994"
    INDEX 01 02:09:69
  TRACK 86 AUDIO
    TITLE "0:"
    INDEX 01 02:11:06
  TRACK 87 AUDIO
    TITLE "30:cjc123_5995"
    INDEX 01 02:11:15
  TRACK 88 AUDIO
    TITLE "0:"
    INDEX 01 02:12:35
  TRACK 89 AUDIO
    TITLE "31:cjc123_5996"
    INDEX 01 02:13:14
  TRACK 90 AUDIO
    TITLE "0:"
    INDEX 01 02:18:18
  TRACK 91 AUDIO
    TITLE "32:cjc123_5997"
    INDEX 01 02:18:63
  TRACK 92 AUDIO
    TITLE "0:"
    INDEX 01 02:23:09
  TRACK 93 AUDIO
    TITLE "28:cjc123_5998"
    INDEX 01 02:23:74
  TRACK 94 AUDIO
    TITLE "0:"
    INDEX 01 02:25:20
  TRACK 95 AUDIO
    TITLE "29:cjc123_5999"
    INDEX 01 02:25:45
  TRACK 96 AUDIO
    TITLE "0:"
    INDEX 01 02:26:66
  TRACK 97 AUDIO
    TITLE "30:cjc123_6000"
    INDEX 01 02:27:01
  TRACK 98 AUDIO
    TITLE "0:"
    INDEX 01 02:28:06
  TRACK 99 AUDIO
    TITLE "31:cjc123_6001"
    INDEX 01 02:28:49
  TRACK 100 AUDIO
    TITLE "0:"
    INDEX 01 02:34:18
  TRACK 101 AUDIO
    TITLE "32:cjc123_6002"
    INDEX 01 02:34:42
  TRACK 102 AUDIO
    TITLE "0:"
    INDEX 01 02:39:49
  TRACK 103 AUDIO
    TITLE "28:cjc123_6003"
    INDEX 01 02:40:05
  TRACK 104 AUDIO
    TITLE "0:"
    INDEX 01 02:41:28
  TRACK 105 AUDIO
    TITLE "29:cjc123_6004"
    INDEX 01 02:41:40
  TRACK 106 AUDIO
    TITLE "0:"
    INDEX 01 02:42:51
  TRACK 107 AUDIO
    TITLE "30:cjc123_6005"
    INDEX 01 02:42:61
  TRACK 108 AUDIO
    TITLE "0:"
    INDEX 01 02:44:15
  TRACK 109 AUDIO
    TITLE "31:cjc123_6006"
    INDEX 01 02:44:70
  TRACK 110 AUDIO
    TITLE "0:"
    INDEX 01 02:50:27
  TRACK 111 AUDIO
    TITLE "32:cjc123_6007"
    INDEX 01 02:50:63
  TRACK 112 AUDIO
    TITLE "0:"
    INDEX 01 02:56:02
  TRACK 113 AUDIO
    TITLE "28:cjc123_6008"
    INDEX 01 02:56:48
  TRACK 114 AUDIO
    TITLE "0:"
    INDEX 01 02:57:67
  TRACK 115 AUDIO
    TITLE "29:cjc123_6009"
    INDEX 01 02:58:09
  TRACK 116 AUDIO
    TITLE "0:"
    INDEX 01 02:59:18
  TRACK 117 AUDIO
    TITLE "30:cjc123_6010"
    INDEX 01 02:59:36
  TRACK 118 AUDIO
    TITLE "0:"
    INDEX 01 03:00:51
  TRACK 119 AUDIO
    TITLE "31:cjc123_6011"
    INDEX 01 03:01:23
  TRACK 120 AUDIO
    TITLE "0:"
    INDEX 01 03:04:55
  TRACK 121 AUDIO
    TITLE "32:cjc123_6012"
    INDEX 01 03:05:13
  TRACK 122 AUDIO
    TITLE "0:"
    INDEX 01 03:08:45
  TRACK 123 AUDIO
    TITLE "28:cjc123_6013"
    INDEX 01 03:09:15
  TRACK 124 AUDIO
    TITLE "0:"
    INDEX 01 03:10:30
  TRACK 125 AUDIO
    TITLE "29:cjc123_6014"
    INDEX 01 03:10:50
  TRACK 126 AUDIO
    TITLE "0:"
    INDEX 01 03:11:67
  TRACK 127 AUDIO
    TITLE "30:cjc123_6015"
    INDEX 01 03:12:01
  TRACK 128 AUDIO
    TITLE "0:"
    INDEX 01 03:13:13
  TRACK 129 AUDIO
    TITLE "31:cjc123_6016"
    INDEX 01 03:14:08
  TRACK 130 AUDIO
    TITLE "0:"
    INDEX 01 03:18:33
  TRACK 131 AUDIO
    TITLE "32:cjc123_6017"
    INDEX 01 03:18:45
  TRACK 132 AUDIO
    TITLE "0:"
    INDEX 01 03:22:39
  TRACK 133 AUDIO
    TITLE "28:cjc123_6018"
    INDEX 01 03:22:74
  TRACK 134 AUDIO
    TITLE "0:"
    INDEX 01 03:24:09
  TRACK 135 AUDIO
    TITLE "29:cjc123_6019"
    INDEX 01 03:24:26
  TRACK 136 AUDIO
    TITLE "0:"
    INDEX 01 03:25:43
  TRACK 137 AUDIO
    TITLE "30:cjc123_6020"
    INDEX 01 03:25:55
  TRACK 138 AUDIO
    TITLE "0:"
    INDEX 01 03:26:58
  TRACK 139 AUDIO
    TITLE "31:cjc123_6021"
    INDEX 01 03:27:36
  TRACK 140 AUDIO
    TITLE "0:"
    INDEX 01 03:32:16
  TRACK 141 AUDIO
    TITLE "32:cjc123_6022"
    INDEX 01 03:32:45
  TRACK 142 AUDIO
    TITLE "0:"
    INDEX 01 03:38:03
  TRACK 143 AUDIO
    TITLE "28:cjc123_6023"
    INDEX 01 03:38:46
  TRACK 144 AUDIO
    TITLE "0:"
    INDEX 01 03:39:69
  TRACK 145 AUDIO
    TITLE "29:cjc123_6024"
    INDEX 01 03:40:08
  TRACK 146 AUDIO
    TITLE "0:"
    INDEX 01 03:41:27
  TRACK 147 AUDIO
    TITLE "30:cjc123_6025"
    INDEX 01 03:41:36
  TRACK 148 AUDIO
    TITLE "0:"
    INDEX 01 03:42:57
  TRACK 149 AUDIO
    TITLE "31:cjc123_6026"
    INDEX 01 03:43:35
  TRACK 150 AUDIO
    TITLE "0:"
    INDEX 01 03:47:33
  TRACK 151 AUDIO
    TITLE "32:cjc123_6027"
    INDEX 01 03:47:64
  TRACK 152 AUDIO
    TITLE "0:"
    INDEX 01 03:50:63
